<svg width="19" height="22" viewBox="0 0 19 22" fill="none" xmlns="http://www.w3.org/2000/svg">
<path d="M7.15307 20.01C7.15307 21.11 8.04307 22 9.14307 22C10.2431 22 11.1331 21.11 11.1331 20.01H7.15307ZM9.14307 5C11.9031 5 14.1431 7.24 14.1431 10V17H4.14307V10C4.14307 7.24 6.38307 5 9.14307 5ZM9.14307 0.5C8.31307 0.5 7.64307 1.17 7.64307 2V3.17C4.50307 3.85 2.14307 6.65 2.14307 10V16L0.143066 18V19H18.1431V18L16.1431 16V10C16.1431 6.65 13.7831 3.85 10.6431 3.17V2C10.6431 1.17 9.97307 0.5 9.14307 0.5Z" fill="white"/>
</svg>
